<?xml version="1.0" standalone="no"?><!DOCTYPE svg PUBLIC "-//W3C//DTD SVG 1.1//EN" "http://www.w3.org/Graphics/SVG/1.1/DTD/svg11.dtd"><svg t="1649405830799" class="icon" viewBox="0 0 1516 1024" version="1.1" xmlns="http://www.w3.org/2000/svg" p-id="2972" xmlns:xlink="http://www.w3.org/1999/xlink" width="296.09375" height="200"><defs><style type="text/css">@font-face { font-family: feedback-iconfont; src: url("//at.alicdn.com/t/font_1031158_u69w8yhxdu.woff2?t=1630033759944") format("woff2"), url("//at.alicdn.com/t/font_1031158_u69w8yhxdu.woff?t=1630033759944") format("woff"), url("//at.alicdn.com/t/font_1031158_u69w8yhxdu.ttf?t=1630033759944") format("truetype"); }
</style></defs><path d="M884.655327 352.945389l5.500447 4.583707zM916.741271 641.71889z m0 0M953.410922 275.022381a315.358997 315.358997 0 0 0-176.014324-71.505819 305.274843 305.274843 0 0 0-298.857654 176.931066A316.275739 316.275739 0 0 0 458.370636 574.796777a306.191585 306.191585 0 0 0 247.520143 238.352731 358.445837 358.445837 0 0 0 52.254252 4.583706 304.358102 304.358102 0 0 0 174.180842-55.004476 317.19248 317.19248 0 0 0 114.592659-149.428828 307.108326 307.108326 0 0 0-93.50761-338.277529zM916.741271 388.698299z m-284.189794-42.170098zM591.29812 633.468218z m286.940018 42.170099z m80.673232-136.594449a261.271262 261.271262 0 0 1-14.667861 52.254252 254.854073 254.854073 0 0 1-20.168308 36.669651l-7.33393 7.33393-13.751119 14.66786-17.418084 15.584602-10.084154 7.33393a260.354521 260.354521 0 0 1-36.669651 20.168308 261.271262 261.271262 0 0 1-52.254252 14.66786h-55.004477a262.188004 262.188004 0 0 1-52.254252-14.66786A261.271262 261.271262 0 0 1 641.71889 679.305282l-7.33393-5.500448-14.667861-13.751119-24.752014-18.334825-8.250671-14.66786a254.854073 254.854073 0 0 1-20.168308-36.669651A262.188004 262.188004 0 0 1 550.044763 538.127126a264.938227 264.938227 0 0 1 0-55.004476 262.188004 262.188004 0 0 1 14.66786-52.254253 256.687556 256.687556 0 0 1 20.168308-36.66965l5.500448-7.333931 20.168308-20.168307 17.418084-15.584602 13.751119-8.250672a259.43778 259.43778 0 0 1 36.669651-20.168308 261.271262 261.271262 0 0 1 52.254252-14.66786 265.854969 265.854969 0 0 1 55.004476 0 261.271262 261.271262 0 0 1 52.254253 14.66786 258.521038 258.521038 0 0 1 36.669651 20.168308l7.33393 5.500448 18.334825 18.334826 15.584602 17.418084 7.33393 10.084154a256.687556 256.687556 0 0 1 20.168308 36.66965 262.188004 262.188004 0 0 1 14.66786 52.254253 265.854969 265.854969 0 0 1 0 55.004476z m0 0" p-id="2973" data-spm-anchor-id="a313x.7781069.0.i0" class="selected" fill="#ffffff"></path><path d="M596.798568 381.364369l4.583706-5.500448z m28.418979 287.856759z m523.459266 106.341987z m0 0M1503.455685 484.956132a1440.200537 1440.200537 0 0 0-269.521934-301.607878A825.067144 825.067144 0 0 0 933.242614 23.835273 691.222919 691.222919 0 0 0 614.216652 15.584602a761.811996 761.811996 0 0 0-295.19069 135.677708A1359.527305 1359.527305 0 0 0 37.586392 441.869293l-31.169203 43.086839a49.504029 49.504029 0 0 0 0 51.337512A1440.200537 1440.200537 0 0 0 275.022381 837.901522a825.067144 825.067144 0 0 0 298.857655 159.512981 690.306177 690.306177 0 0 0 183.348254 23.835273 709.557744 709.557744 0 0 0 314.442256-76.089525 1001.081468 1001.081468 0 0 0 280.522829-217.267682 1722.556849 1722.556849 0 0 0 151.26231-191.598925 49.504029 49.504029 0 0 0 0-51.337512z m-128.343778 58.671442l-11.000895 14.66786c9.167413-12.834378 0 0 0 0l-22.001791 27.502238c-27.502238 33.002686-55.921218 65.08863-86.173679 91.674127a1108.340197 1108.340197 0 0 1-91.674127 79.756491l-10.084154 8.250672-22.918532 16.501342-49.504029 43.08684a756.311549 756.311549 0 0 1-98.091316 51.337511 652.719785 652.719785 0 0 1-151.26231 40.336616 632.551477 632.551477 0 0 1-154.929275 0 653.636526 653.636526 0 0 1-151.262309-42.170098 748.977619 748.977619 0 0 1-86.17368-49.504029l-45.837063-29.335721-22.001791-15.584601L366.696509 776.479857h-5.500448A1207.348254 1207.348254 0 0 1 183.348254 601.382274l-22.918532-28.418979-12.834377-16.501343v-4.583707c10.084154 12.834378 0 0 0 0l-29.335721-39.419874 23.835273-32.085945 11.000895-14.66786 22.001791-27.502238c27.502238-33.002686 55.921218-65.08863 86.173679-91.674127a1100.089526 1100.089526 0 0 1 91.674127-79.756491l10.084154-8.250672 22.918532-16.501342 44.920322-29.335721a755.394808 755.394808 0 0 1 98.091317-51.337511 654.553268 654.553268 0 0 1 149.428827-54.087735 641.71889 641.71889 0 0 1 154.929275 0 654.553268 654.553268 0 0 1 151.262309 42.170098 747.144136 747.144136 0 0 1 86.17368 44.920323l45.837063 29.33572 22.001791 15.584602 10.084154 7.33393h5.500448a1199.097583 1199.097583 0 0 1 174.180841 171.430618l22.918532 28.418979 12.834378 16.501343v4.583706c-10.084154-12.834378 0 0 0 0l29.33572 39.419875-18.334825 36.669651z m0 0" p-id="2974" data-spm-anchor-id="a313x.7781069.0.i1" class="selected" fill="#ffffff"></path><path d="M1151.427037 248.436885zM359.362578 773.729633z m0-527.126231z m0 0" p-id="2975"></path></svg>