<?xml version="1.0" standalone="no"?><!DOCTYPE svg PUBLIC "-//W3C//DTD SVG 1.1//EN" "http://www.w3.org/Graphics/SVG/1.1/DTD/svg11.dtd"><svg t="1614740253581" class="icon" viewBox="0 0 1024 1024" version="1.1" xmlns="http://www.w3.org/2000/svg" p-id="10360" xmlns:xlink="http://www.w3.org/1999/xlink" width="200" height="200"><defs><style type="text/css"></style></defs><path d="M512.5 226.219c157.88 0 283.956 150.365 286.462 334.818l0.038 5.6V921c0 14.912-12.088 27-27 27-14.763 0-26.758-11.848-26.996-26.554L745 921V566.637c0-159.192-105.34-286.418-232.5-286.418-125.89 0-230.391 124.694-232.468 281.652l-0.032 4.766V921c0 14.912-12.088 27-27 27-14.763 0-26.758-11.848-27-26.554V566.637c0-187 127.025-340.418 286.5-340.418z" p-id="10361" fill="#d81e06"></path><path d="M931 905c14.912 0 27 12.088 27 27s-12.088 27-27 27H93c-14.912 0-27-12.088-27-27s12.088-27 27-27h838z m0-228c14.912 0 27 12.088 27 27s-12.088 27-27 27h-88c-14.912 0-27-12.088-27-27s12.088-27 27-27h88z m-750 0c14.912 0 27 12.088 27 27s-12.088 27-27 27H93c-14.912 0-27-12.088-27-27s12.088-27 27-27h88z m744.488-389.5c7.456 12.914 3.031 29.427-9.883 36.883l-76.21 44c-12.914 7.456-29.427 3.03-36.883-9.883-7.456-12.914-3.031-29.427 9.883-36.883l76.21-44c12.914-7.456 29.427-3.03 36.883 9.883z m-789.482-10.103l0.389 0.22 76.21 44c12.914 7.456 17.339 23.97 9.883 36.883-7.381 12.785-23.64 17.25-36.494 10.103l-0.389-0.22-76.21-44c-12.914-7.456-17.339-23.97-9.883-36.883 7.381-12.785 23.64-17.25 36.494-10.103zM512 66c14.912 0 27 12.088 27 27v88c0 14.912-12.088 27-27 27s-27-12.088-27-27V93c0-14.912 12.088-27 27-27z" p-id="10362" fill="#d81e06"></path><path d="M553.434 396.053c10.711-10.375 27.804-10.101 38.179 0.61 10.27 10.604 10.105 27.463-0.292 37.866l-0.318 0.313L458.68 563H595.72c22.964 0 41.623 18.43 41.994 41.305l0.006 0.695a42 42 0 0 1-9.865 27.043l-0.37 0.434L456.76 829.841c-9.756 11.278-26.807 12.512-38.084 2.756-11.165-9.658-12.486-26.466-3.046-37.744l0.29-0.34L569.471 617H429.044a42 42 0 0 1-29.771-12.374l-0.398-0.406c-15.977-16.495-15.72-42.72 0.454-58.902l0.495-0.487 153.61-148.778z" p-id="10363" fill="#d81e06"></path></svg>