<?xml version="1.0" standalone="no"?><!DOCTYPE svg PUBLIC "-//W3C//DTD SVG 1.1//EN" "http://www.w3.org/Graphics/SVG/1.1/DTD/svg11.dtd"><svg t="1614331033413" class="icon" viewBox="0 0 1124 1024" version="1.1" xmlns="http://www.w3.org/2000/svg" p-id="2498" xmlns:xlink="http://www.w3.org/1999/xlink" width="219.53125" height="200"><defs><style type="text/css"></style></defs><path d="M307.62125 424.28375l-245.62125 75.25125v62.3925L307.62125 478.9025zM62 733.625L307.62125 705.95v-60.12l-245.62125 23.65875zM307.62125 532.475l-245.62125 57.0825v53.1L307.62125 596.8025zM307.62125 193.77125L62 340.65125v46.29375L307.62125 253.55375zM307.62125 141.1325V82.61l-245.62125 168.75v45.855zM62 846.2825v53.83125L307.62125 924.48125v-67.815zM307.62125 744.86375l-245.62125 12.74625v54.37125H307.62125zM307.62125 368.91125v-56.35125l-245.62125 100.85625v59.27625z" p-id="2499" fill="#0b65ff"></path><path d="M718.24625 471.69125v-56.37375L330.12125 306.1025v62.62875zM718.24625 757.41875L330.12125 751.2425v60.73875h388.125zM330.12125 646.51625v60.96375l388.125 16.8075v-54.07875zM718.24625 391.29875v-56.39625L330.12125 193.99625v60.03zM330.12125 861.47v55.51875l388.125-26.2575v-39.96zM718.24625 302.57v-56.835L330.12125 82.61v55.40625zM718.24625 642.2075v-55.13625L330.12125 535.79375v60.04125zM718.24625 561.17375v-58.42125L330.12125 418.81625v64.49625z" p-id="2500" fill="#0b65ff"></path><path d="M748.23875 743.91875v41.05125l143.4375-12.02625v-43.4475zM891.67625 402.1325V362.9375l-143.4375 74.05875v30.43125zM748.23875 683.88875v38.7675l143.4375-25.03125v-36.88875zM891.67625 792.5525l-143.4375 8.85375v39.65625h143.4375zM748.23875 557.9225v38.89125l143.4375-50.67v-37.99125zM748.23875 619.26875v38.77875l143.4375-31.78125v-43.93125zM748.23875 493.35875v44.4375l143.4375-64.42875V437.525z" p-id="2501" fill="#0b65ff"></path><path d="M903.87125 730.25v41.00625l146.25 12.96v-34.12125zM1050.12125 841.0625v-38.07l-146.25-10.0575v48.1275zM903.87125 659.43125v39.33l146.25 29.05875v-32.27625zM1050.12125 502.78625v-31.095L903.87125 362.9375v46.72125zM903.87125 440.73125v34.3125l146.25 87.255v-38.2275zM903.87125 868.05125v35.82L1050.12125 894.5v-31.5675zM903.87125 510.7625v44.1l146.25 61.77375v-38.205zM903.87125 590.73875v37.36125l146.25 44.47125V635.975z" p-id="2502" fill="#0b65ff"></path><path d="M891.67625 903.5225v-35.26875h-143.4375v27.675z" p-id="2503" fill="#0b65ff"></path></svg>